# xmcd CD database file
#
# Track frame offsets:
#	183
#	14318
#	28403
#	40885
#	57280
#	69390
#	80665
#	91848
#	108070
#	121180
#	134568
#	152843
#	165535
#	185478
#
# Disc length: 2613 seconds
#
# Revision: 1
# Processed by: cddbd v1.4PL0 Copyright (c) Steve Scherf et al.
# Submitted via: CDex 1.40Release
#
DISCID=b40a330e
DTITLE=Various Artist - Trucker Songs 4. Folge
DYEAR=1989
DGENRE=Country
TTITLE0=Barbara Fairchild - Y´all Come
TTITLE1=Freddy Fender - Yambalaya
TTITLE2=Mickey Gilley - Don´t The Girls All Get Prettier At Closing Time
TTITLE3=Dottie West - Leavin´s For Unbelievers
TTITLE4=Johnny Rodriguez - Love Me With All Your Heart
TTITLE5=Goerge Jones - No Show Jones
TTITLE6=Tom T.Hall - Ravishing Ruby
TTITLE7=Nitty Gritty Dirt Band - Dance Little Jean
TTITLE8=Tanya Tucker - Antonio Stroll
TTITLE9=Atlanta - Can´t You Hear
TTITLE10=Ed and Bruce Lynn Anderson - Fools For Each Other
TTITLE11=The Osmonds - Takin´ Country To The City
TTITLE12=Tammy Wynette - Gospel Meddley
TTITLE13=Faron Young - Going Steady
EXTD=YEAR: 1989 ID3G: 2
EXTT0=
EXTT1=
EXTT2=
EXTT3=
EXTT4=
EXTT5=
EXTT6=
EXTT7=
EXTT8=
EXTT9=
EXTT10=
EXTT11=
EXTT12=
EXTT13=
PLAYORDER=
